<?xml version="1.0" standalone="no"?>
<!DOCTYPE svg PUBLIC "-//W3C//DTD SVG 20010904//EN"
 "http://www.w3.org/TR/2001/REC-SVG-20010904/DTD/svg10.dtd">
<svg version="1.0" xmlns="http://www.w3.org/2000/svg"
 width="626.000000pt" height="626.000000pt" viewBox="0 0 626.000000 626.000000"
 preserveAspectRatio="xMidYMid meet">

<g transform="translate(0.000000,626.000000) scale(0.100000,-0.100000)"
fill="#000000" stroke="none">
<path d="M3370 5159 c-59 -26 -77 -44 -107 -102 -36 -71 -40 -157 -14 -297 41
-225 50 -527 20 -685 -14 -74 -44 -127 -136 -243 -131 -163 -175 -236 -224
-367 l-20 -55 -45 0 c-61 0 -116 30 -197 108 -63 61 -163 195 -201 270 -10 19
-19 32 -21 30 -2 -1 4 -37 12 -78 19 -96 21 -288 3 -360 -53 -223 -199 -313
-480 -297 -137 8 -365 53 -475 93 -11 4 12 -14 50 -41 292 -200 481 -386 501
-491 10 -52 -2 -78 -63 -144 -80 -87 -230 -182 -352 -225 -30 -10 -11 -12 125
-11 150 1 162 0 209 -24 47 -24 50 -27 49 -62 -2 -66 -96 -199 -295 -417 l-99
-110 108 61 c177 101 345 168 420 168 12 0 35 -12 49 -26 23 -24 25 -30 19
-82 -12 -104 -102 -341 -223 -587 -39 -81 -53 -93 131 119 165 192 316 325
385 343 82 20 155 -90 214 -325 l24 -92 12 150 c12 153 39 285 67 327 35 55
79 42 169 -51 38 -39 97 -113 130 -163 32 -51 60 -91 61 -90 2 1 -6 38 -16 82
-10 44 -21 100 -25 124 l-7 44 43 -24 c29 -16 60 -48 95 -98 113 -159 190
-213 331 -232 141 -19 380 18 503 78 97 47 182 149 219 265 8 23 31 53 67 83
30 26 66 68 82 93 23 41 27 58 27 128 l0 81 80 85 c105 111 147 188 153 284 4
66 2 78 -27 136 -17 35 -43 82 -57 105 -23 39 -24 44 -11 75 8 18 39 69 69
114 79 115 103 192 103 324 0 93 -3 112 -27 163 -16 34 -52 82 -87 118 -88 87
-201 138 -434 195 -325 79 -310 73 -325 119 -19 56 -3 149 52 323 57 176 70
276 63 462 -9 230 -58 368 -167 479 -134 136 -381 209 -510 150z m205 -54
c211 -54 346 -194 390 -405 19 -90 22 -348 5 -442 -7 -35 -27 -108 -46 -163
-62 -177 -79 -305 -51 -384 22 -61 34 -66 379 -149 238 -58 375 -130 439 -230
83 -131 65 -308 -47 -473 -101 -147 -105 -178 -39 -289 25 -41 50 -92 56 -113
22 -83 -20 -178 -132 -292 -99 -101 -108 -120 -102 -195 3 -32 2 -71 -1 -86
-4 -15 -40 -62 -81 -103 -53 -55 -79 -91 -94 -130 -46 -123 -131 -205 -250
-241 -176 -55 -399 -65 -492 -23 -100 45 -220 196 -233 292 -7 54 4 114 27
145 13 17 19 15 97 -43 168 -125 211 -138 475 -148 150 -5 172 -4 184 11 25
30 -3 46 -79 46 -109 0 -314 19 -364 34 -76 23 -273 171 -302 228 -14 27 -13
36 5 106 10 42 28 98 40 124 l20 47 43 -15 c66 -23 190 -51 329 -74 171 -28
458 -60 475 -53 17 6 18 37 2 50 -7 6 -67 15 -133 22 -265 27 -539 73 -635
107 -101 37 -137 113 -127 269 8 111 19 151 55 194 l28 34 59 -22 c106 -37
235 -52 515 -58 230 -4 268 -3 285 10 16 13 18 19 9 34 -10 16 -25 18 -135 15
-155 -4 -451 13 -551 32 -119 23 -199 70 -234 139 -14 26 -16 50 -10 137 9
152 17 178 70 226 57 53 164 88 311 105 113 12 143 25 131 55 -6 15 -17 16
-99 11 -184 -13 -339 -68 -410 -146 -42 -46 -51 -77 -68 -223 -14 -127 -4
-182 43 -241 l30 -38 -20 -22 c-12 -12 -31 -45 -44 -72 -21 -45 -23 -65 -23
-190 0 -130 2 -144 25 -191 l26 -52 -19 -43 c-28 -67 -67 -207 -67 -243 0 -17
7 -43 15 -59 13 -25 12 -31 -12 -78 -15 -29 -28 -73 -31 -105 -2 -30 -9 -54
-15 -54 -20 0 -106 62 -143 102 -95 106 -124 275 -88 517 8 58 17 108 19 110
6 5 25 -16 68 -72 20 -27 37 -47 37 -45 0 26 -79 227 -109 277 -22 36 -55 109
-72 161 -30 87 -33 105 -32 215 1 139 26 275 79 434 49 146 100 238 209 376
122 152 161 230 176 350 16 122 5 492 -17 600 -9 44 -19 121 -21 171 -4 77 -2
97 15 130 49 96 125 122 257 89z m-741 -1902 c-14 -64 -19 -131 -19 -243 0
-171 9 -213 83 -373 l35 -77 -16 -88 c-42 -215 -45 -359 -11 -487 8 -32 12
-60 9 -63 -10 -11 -275 129 -350 185 -234 174 -340 382 -307 598 34 219 149
395 340 522 77 51 240 128 250 118 3 -2 -4 -44 -14 -92z"/>
<path d="M4450 2962 c-51 -25 -67 -27 -203 -30 -166 -4 -184 -15 -76 -45 69
-19 210 -24 250 -9 26 11 56 41 84 85 21 33 15 33 -55 -1z"/>
<path d="M4413 2265 c-29 -7 -99 -16 -155 -21 -97 -7 -100 -8 -58 -16 79 -16
189 -5 245 25 55 29 47 31 -32 12z"/>
<path d="M4075 1776 l-60 -12 40 -7 c65 -11 133 -8 170 7 19 8 35 17 35 20 0
10 -122 4 -185 -8z"/>
</g>
</svg>
