<?xml version="1.0" standalone="no"?>
<!DOCTYPE svg PUBLIC "-//W3C//DTD SVG 20010904//EN"
 "http://www.w3.org/TR/2001/REC-SVG-20010904/DTD/svg10.dtd">
<svg version="1.0" xmlns="http://www.w3.org/2000/svg"
 width="626.000000pt" height="626.000000pt" viewBox="0 0 626.000000 626.000000"
 preserveAspectRatio="xMidYMid meet">

<g transform="translate(0.000000,626.000000) scale(0.100000,-0.100000)"
fill="#000000" stroke="none">
<path d="M2688 5638 l-38 -22 0 -893 c0 -768 2 -892 14 -887 8 3 17 12 20 20
16 41 113 -16 101 -59 -4 -13 33 18 90 76 53 53 98 97 101 97 2 0 4 -53 4
-118 0 -90 4 -123 16 -140 10 -15 14 -39 12 -75 l-3 -54 -125 73 c-69 40 -129
73 -133 73 -4 1 -11 -7 -15 -16 -14 -36 -57 -93 -70 -93 -10 0 -12 -20 -10
-81 l3 -80 590 -341 c325 -187 754 -435 955 -551 201 -116 451 -260 555 -320
253 -146 426 -246 566 -327 l115 -67 42 24 42 25 -2 1076 -3 1075 -490 283
c-269 156 -562 325 -650 375 -88 51 -212 123 -275 159 -118 69 -879 509 -1191
688 -97 56 -178 102 -180 102 -2 0 -21 -10 -41 -22z m254 -269 c227 -131 651
-376 793 -459 55 -32 204 -118 330 -190 127 -73 289 -167 360 -208 167 -96
365 -211 688 -397 l257 -148 0 -874 0 -874 -22 12 c-13 7 -300 172 -638 367
-790 457 -920 532 -1060 612 l-115 66 -1 200 c0 109 -4 260 -8 334 -3 74 -3
158 2 185 l8 50 19 -72 c26 -101 61 -136 207 -212 65 -33 120 -56 123 -51 4 6
1 10 -4 10 -28 0 0 73 33 88 16 7 29 6 47 -4 35 -20 44 -17 47 13 3 37 6 38
46 13 23 -14 36 -29 36 -43 0 -12 7 -30 14 -39 11 -15 12 -7 8 52 -2 39 -1 70
2 70 4 0 25 -9 46 -20 l40 -20 0 -76 0 -76 -34 21 c-46 29 -50 27 -24 -12 13
-21 56 -53 117 -88 377 -217 841 -485 869 -501 l32 -20 0 329 -1 328 -602 347
c-332 191 -610 350 -620 354 -16 6 -17 -15 -17 -301 l0 -307 -37 28 c-21 15
-40 31 -43 34 -3 4 -30 25 -60 48 l-55 41 -43 178 c-48 197 -73 259 -115 282
-16 9 -63 37 -104 63 -42 26 -79 45 -83 43 -4 -3 -10 -20 -13 -39 -8 -49 -56
-119 -72 -106 -16 13 -19 9 -38 -60 -26 -93 -37 -204 -37 -387 0 -156 -2 -174
-16 -169 -9 3 -28 9 -42 12 -52 13 -52 11 -52 256 0 225 12 333 42 392 14 26
-4 41 -32 26 -20 -11 -21 -10 -10 10 9 17 8 25 -4 39 -9 10 -16 30 -16 44 0
42 -46 37 -92 -10 -34 -37 -36 -43 -67 -223 -18 -102 -35 -189 -39 -195 -10
-18 -144 -185 -148 -185 -2 0 -4 344 -4 765 0 421 2 765 4 765 2 0 91 -50 198
-111z m1476 -1653 c1 -86 0 -156 -4 -156 -3 0 -24 10 -45 22 l-39 22 0 151 c0
83 3 154 6 158 3 3 23 -4 43 -17 l36 -23 3 -157z m-142 153 l34 -21 0 -115 0
-115 -42 25 -43 25 -1 111 c0 65 4 111 9 111 5 0 25 -9 43 -21z m809 -203 c17
-28 -5 -30 -50 -6 -45 24 -60 44 -49 61 6 11 84 -33 99 -55z m-39 -32 c28 -16
44 -33 44 -45 0 -10 -3 -19 -7 -18 -21 2 -98 57 -101 72 -5 24 12 21 64 -9z
m-1750 -211 c-14 -14 -26 15 -19 48 l7 34 9 -38 c5 -21 6 -41 3 -44z m1762 8
c27 -50 32 -70 32 -123 0 -63 0 -63 -38 -85 l-38 -22 -28 23 c-27 21 -28 25
-24 97 4 70 37 169 55 169 4 0 23 -27 41 -59z"/>
<path d="M3203 4913 c-24 -5 -63 -52 -63 -76 0 -26 18 -30 86 -16 84 17 95 7
65 -55 -16 -33 -20 -54 -16 -80 7 -37 29 -40 38 -5 7 28 37 36 53 14 12 -16
14 -15 19 11 4 16 9 36 11 44 7 29 -15 92 -41 120 -14 15 -43 32 -64 39 -39
11 -49 12 -88 4z"/>
<path d="M5094 3906 c-17 -46 27 -97 66 -76 38 20 18 73 -32 86 -21 4 -29 2
-34 -10z"/>
<path d="M5261 3891 c-17 -11 -22 -131 -4 -124 6 3 13 32 15 69 2 35 3 64 3
64 0 0 -6 -4 -14 -9z"/>
<path d="M1853 4263 c-10 -4 -13 -95 -12 -411 0 -412 8 -563 28 -570 6 -2 11
-14 11 -27 0 -19 17 -34 87 -75 47 -28 93 -48 101 -45 8 3 58 31 110 62 88 51
94 57 77 69 -34 25 -213 124 -224 124 -5 0 -33 -13 -61 -30 -27 -16 -57 -27
-65 -24 -17 7 -21 64 -5 80 7 7 9 155 8 423 -3 403 -3 414 -23 421 -11 4 -26
5 -32 3z m222 -913 c3 -5 -1 -10 -9 -10 -9 0 -16 5 -16 10 0 6 4 10 9 10 6 0
13 -4 16 -10z"/>
<path d="M2665 3243 c-16 -9 -33 -20 -36 -25 -3 -5 -10 -10 -15 -10 -13 0
-307 -167 -319 -181 -6 -7 -16 -13 -23 -15 -28 -5 -122 -64 -116 -73 3 -5 -2
-6 -10 -3 -9 3 -16 1 -16 -5 0 -6 -3 -10 -7 -9 -16 3 -43 -15 -36 -25 3 -6 1
-7 -5 -3 -15 9 -112 -45 -112 -62 0 -7 7 -15 17 -19 9 -4 65 -35 124 -69 60
-35 128 -74 151 -87 24 -13 95 -55 158 -92 63 -37 141 -82 173 -99 51 -28 55
-32 40 -44 -37 -27 -61 -25 -120 11 -89 53 -212 124 -385 222 -206 117 -196
110 -168 133 20 16 20 19 6 31 -13 11 -23 8 -65 -15 -28 -15 -48 -31 -44 -37
3 -6 1 -7 -5 -4 -16 11 -42 -3 -42 -22 0 -11 26 -31 71 -55 40 -21 74 -47 76
-56 3 -11 11 -16 22 -13 11 3 123 -56 282 -147 145 -84 270 -157 277 -162 8
-7 12 -45 12 -122 l0 -112 56 -32 c65 -38 70 -38 109 -12 17 11 33 20 38 20 4
0 7 -22 7 -48 l0 -48 64 -37 64 -38 61 36 c58 34 61 38 61 75 0 22 2 40 5 40
3 0 30 -14 60 -31 l55 -31 0 -189 0 -189 39 -20 c32 -16 40 -26 43 -52 2 -25
8 -33 23 -33 15 0 21 8 25 33 4 29 15 39 89 82 82 48 85 49 112 33 26 -15 29
-15 85 20 48 29 62 33 79 25 11 -6 136 -78 278 -160 l258 -149 75 41 c41 23
72 45 69 50 -3 5 3 8 13 7 15 -1 136 64 152 82 3 3 22 14 42 23 21 10 57 30
80 45 24 15 69 41 100 57 32 17 67 39 78 49 11 9 24 17 29 17 17 0 133 73 138
87 3 7 9 10 14 7 14 -8 99 44 99 61 0 8 -19 24 -42 36 -24 12 -56 31 -73 43
-16 11 -30 19 -30 17 0 -3 -19 8 -43 23 -67 42 -114 67 -108 58 3 -5 -1 -9 -8
-9 -8 0 -12 5 -10 11 5 13 -2 17 -127 86 -52 29 -111 63 -131 77 -20 14 -42
22 -47 18 -6 -3 -11 0 -11 7 0 13 -82 65 -130 82 -14 5 -27 12 -30 16 -3 3
-36 23 -75 45 -38 21 -88 50 -110 64 -22 15 -59 36 -82 46 -24 11 -43 24 -43
29 0 4 -7 5 -16 2 -8 -3 -13 -2 -10 2 2 4 -26 23 -62 42 -37 19 -70 39 -73 44
-4 5 -12 5 -19 1 -9 -5 -11 -4 -6 3 4 7 -2 16 -17 21 -13 5 -40 21 -61 35 -21
14 -42 23 -47 20 -5 -3 -9 0 -9 6 0 7 -7 9 -16 6 -8 -3 -13 -2 -10 3 6 8 -88
67 -115 73 -7 2 -20 11 -30 20 -10 10 -47 32 -81 49 -35 17 -65 35 -68 39 -3
3 -39 24 -80 46 -41 21 -77 42 -80 45 -3 3 -36 23 -75 44 -38 21 -72 42 -75
46 -7 9 -69 40 -74 37 -2 -2 -13 5 -23 15 -11 9 -23 14 -26 10 -4 -3 -7 -1 -7
5 0 7 -7 12 -15 12 -8 0 -15 5 -15 10 0 6 -5 10 -10 10 -6 0 -36 16 -66 35
-62 40 -59 39 -99 18z m80 -93 c3 -6 -1 -7 -9 -4 -18 7 -21 14 -7 14 6 0 13
-4 16 -10z m75 -46 c0 -2 -9 0 -20 6 -11 6 -20 13 -20 16 0 2 9 0 20 -6 11 -6
20 -13 20 -16z m46 -19 c10 -8 15 -14 9 -14 -5 0 -19 6 -29 14 -11 8 -15 15
-10 15 6 0 19 -7 30 -15z m89 -45 c-3 -5 -12 -10 -18 -10 -7 0 -6 4 3 10 19
12 23 12 15 0z m-235 -120 c4 -22 4 -40 0 -40 -4 0 -10 -13 -13 -30 -8 -40
-37 -41 -37 -1 0 15 5 43 11 62 6 19 13 40 15 48 7 21 16 6 24 -39z m-265 30
c3 -6 -1 -7 -9 -4 -18 7 -21 14 -7 14 6 0 13 -4 16 -10z m420 -60 c3 -6 -1 -7
-9 -4 -18 7 -21 14 -7 14 6 0 13 -4 16 -10z m400 -48 c-3 -3 -11 0 -18 7 -9
10 -8 11 6 5 10 -3 15 -9 12 -12z m-1114 -23 c8 -14 170 -109 184 -109 7 0 18
7 25 15 7 8 18 15 25 15 7 0 19 15 26 33 7 17 18 37 24 42 17 18 60 15 100 -5
22 -11 49 -20 61 -20 12 0 24 -7 27 -15 4 -8 30 -28 60 -45 30 -16 66 -44 81
-60 22 -25 30 -29 46 -20 22 12 100 111 100 127 0 17 42 50 47 36 3 -9 9 -10
22 -1 28 17 53 3 45 -26 -4 -17 0 -27 13 -35 15 -10 14 -11 -9 -7 -15 3 -30 0
-33 -5 -4 -5 -15 -9 -25 -9 -21 0 -73 -66 -100 -127 -5 -13 -14 -23 -20 -23
-6 0 -9 -4 -5 -10 3 -5 22 2 42 15 20 14 40 25 45 25 5 0 6 4 3 10 -3 5 0 7 9
4 14 -5 153 69 167 89 4 5 4 19 2 31 -3 15 -2 17 5 8 5 -8 7 -33 5 -56 -5 -38
-3 -43 21 -54 43 -19 73 -15 95 16 12 15 25 32 31 39 5 7 10 17 10 23 0 15 10
12 65 -20 28 -16 62 -34 78 -41 15 -6 27 -15 27 -19 0 -18 34 -19 54 -3 20 17
20 17 7 0 -16 -20 -17 -19 29 -42 19 -9 46 -27 60 -40 14 -12 45 -30 70 -39
25 -10 61 -30 80 -44 19 -15 57 -37 83 -49 27 -13 63 -33 80 -45 18 -13 54
-33 80 -45 27 -13 67 -36 90 -52 48 -33 94 -51 82 -31 -5 9 -4 11 4 6 6 -4 9
-11 6 -16 -5 -8 42 -43 60 -43 25 0 8 -37 -27 -58 -21 -13 -38 -31 -39 -39 0
-9 -3 -10 -5 -4 -5 12 -69 -20 -214 -108 -41 -24 -83 -48 -93 -51 -10 -4 -16
-11 -12 -16 3 -5 0 -13 -6 -17 -8 -4 -9 -3 -5 4 11 18 -1 15 -50 -14 -24 -14
-41 -31 -37 -36 3 -7 1 -8 -5 -4 -14 9 -95 -32 -87 -44 3 -5 0 -12 -6 -16 -7
-4 -9 -3 -5 4 3 5 0 12 -6 15 -7 2 1 11 18 20 17 9 35 24 38 34 6 14 2 13 -17
-5 -33 -31 -51 -29 -43 6 4 15 9 59 13 98 4 57 3 72 -9 77 -9 3 -77 -39 -172
-105 -157 -111 -186 -122 -186 -75 0 19 22 39 105 98 58 41 105 77 105 81 0 4
-11 10 -25 14 -16 4 -56 -6 -117 -30 -51 -20 -96 -36 -100 -36 -4 0 -15 25
-23 55 -9 30 -20 55 -25 55 -4 0 -18 -8 -31 -18 -22 -19 -23 -19 -91 20 -66
38 -68 41 -68 79 l0 39 84 -50 c47 -28 87 -50 89 -50 5 0 -3 82 -9 88 -1 2
-12 -2 -24 -8 -19 -10 -27 -9 -51 9 -15 12 -30 21 -33 21 -3 0 -60 32 -128 71
-67 40 -136 80 -153 89 -16 9 -91 52 -165 95 -74 43 -187 107 -249 143 -63 35
-147 83 -185 107 -39 23 -86 50 -104 59 -27 14 -30 19 -20 31 14 16 78 11 89
-6z m949 -13 c0 -2 -7 -7 -16 -10 -8 -3 -12 -2 -9 4 6 10 25 14 25 6z m385
-86 c3 -6 -1 -7 -9 -4 -18 7 -21 14 -7 14 6 0 13 -4 16 -10z m130 -30 c-3 -5
-12 -10 -18 -10 -7 0 -6 4 3 10 19 12 23 12 15 0z m180 -198 c-3 -3 -11 0 -18
7 -9 10 -8 11 6 5 10 -3 15 -9 12 -12z m170 -102 c-3 -5 -12 -10 -18 -10 -7 0
-6 4 3 10 19 12 23 12 15 0z m-1134 -69 l23 -18 -32 -17 -32 -17 0 36 c0 40 8
43 41 16z m1376 -17 c-3 -3 -12 -4 -19 -1 -8 3 -5 6 6 6 11 1 17 -2 13 -5z
m-1547 -14 c0 -5 -4 -10 -9 -10 -6 0 -13 5 -16 10 -3 6 1 10 9 10 9 0 16 -4
16 -10z m-60 -40 c0 -5 -2 -10 -4 -10 -3 0 -8 5 -11 10 -3 6 -1 10 4 10 6 0
11 -4 11 -10z m270 -80 c0 -5 -4 -10 -10 -10 -5 0 -10 5 -10 10 0 6 5 10 10
10 6 0 10 -4 10 -10z m-50 -40 c0 -5 -4 -10 -10 -10 -5 0 -10 5 -10 10 0 6 5
10 10 10 6 0 10 -4 10 -10z m-220 -16 c0 -8 -4 -12 -10 -9 -5 3 -10 10 -10 16
0 5 5 9 10 9 6 0 10 -7 10 -16z m1651 -71 c13 -17 13 -17 -6 -3 -11 8 -22 16
-24 17 -2 2 0 3 6 3 6 0 17 -8 24 -17z m314 -33 c-3 -5 -12 -10 -18 -10 -7 0
-6 4 3 10 19 12 23 12 15 0z m85 0 c0 -5 -8 -10 -17 -10 -15 0 -16 2 -3 10 19
12 20 12 20 0z m-1830 -20 c0 -5 -4 -10 -10 -10 -5 0 -10 5 -10 10 0 6 5 10
10 10 6 0 10 -4 10 -10z m1116 -88 c-4 -3 -14 2 -24 12 -16 18 -16 18 6 6 13
-6 21 -14 18 -18z m54 2 c0 -2 -9 0 -20 6 -11 6 -20 13 -20 16 0 2 9 0 20 -6
11 -6 20 -13 20 -16z m906 0 c18 -14 18 -14 -6 -3 -31 14 -36 19 -24 19 6 0
19 -7 30 -16z m78 -25 c-6 -11 -41 -12 -47 -1 -3 4 8 7 24 8 15 1 26 -3 23 -7z
m-57 -35 c-3 -3 -12 -4 -19 -1 -8 3 -5 6 6 6 11 1 17 -2 13 -5z m-112 -64 c-3
-5 -12 -10 -18 -10 -7 0 -6 4 3 10 19 12 23 12 15 0z m-1161 -29 c-10 -10 -21
-16 -24 -14 -3 3 4 11 14 19 28 20 33 17 10 -5z m56 -77 c0 -2 -9 0 -20 6 -11
6 -20 13 -20 16 0 2 9 0 20 -6 11 -6 20 -13 20 -16z m305 -174 c3 -6 -1 -7 -9
-4 -18 7 -21 14 -7 14 6 0 13 -4 16 -10z m120 -70 c3 -6 -1 -7 -9 -4 -18 7
-21 14 -7 14 6 0 13 -4 16 -10z"/>
<path d="M2697 2584 c-4 -23 -2 -23 37 -18 23 4 42 7 43 8 1 1 -16 8 -37 17
-38 17 -38 17 -43 -7z"/>
<path d="M2968 2575 c-13 -16 -16 -33 -11 -55 4 -22 8 -28 14 -18 5 7 9 21 9
31 0 10 12 29 28 42 l27 24 -25 0 c-15 0 -32 -9 -42 -24z"/>
<path d="M3257 2482 c-9 -2 -24 -17 -32 -33 -14 -26 -14 -32 1 -60 20 -40 115
-168 141 -191 26 -24 104 -51 115 -40 11 11 -20 65 -89 157 -29 39 -60 88 -69
110 -16 44 -39 63 -67 57z"/>
<path d="M2850 2406 c0 -2 7 -7 16 -10 8 -3 12 -2 9 4 -6 10 -25 14 -25 6z"/>
<path d="M2910 2376 c0 -3 14 -12 30 -21 17 -9 30 -13 30 -11 0 3 -13 12 -30
21 -16 9 -30 13 -30 11z"/>
<path d="M873 2785 c0 -27 2 -38 4 -22 2 15 2 37 0 50 -2 12 -4 0 -4 -28z"/>
<path d="M1283 2780 c0 -30 2 -43 4 -27 2 15 2 39 0 55 -2 15 -4 2 -4 -28z"/>
<path d="M890 2710 c0 -5 5 -12 10 -15 6 -4 8 -11 5 -16 -4 -5 -1 -9 4 -9 6 0
11 -7 11 -15 0 -8 16 -30 35 -49 20 -20 35 -45 35 -59 0 -12 6 -29 13 -36 10
-10 8 -11 -6 -5 -15 5 -16 3 -7 -21 5 -14 10 -44 10 -65 0 -48 27 -70 85 -70
60 1 75 18 85 94 4 36 6 80 5 99 -3 28 1 36 24 50 16 9 36 35 46 62 11 25 23
45 27 45 4 0 8 5 8 10 0 6 -17 0 -37 -13 -56 -35 -64 -36 -175 -38 -86 -1
-104 1 -114 16 -15 21 -64 47 -64 35z"/>
<path d="M1779 2323 c10 -21 18 -42 17 -46 0 -5 41 -32 91 -61 76 -43 90 -55
80 -66 -10 -12 -9 -12 5 -1 14 11 31 4 110 -43 l94 -55 -4 -41 -4 -41 56 28
c81 39 77 59 -21 115 -43 24 -157 90 -254 146 -98 56 -180 102 -183 102 -4 0
2 -17 13 -37z"/>
<path d="M1777 2085 c19 -39 19 -39 52 -21 l25 14 -42 21 c-23 11 -44 21 -46
21 -3 0 2 -16 11 -35z"/>
<path d="M2340 2028 c0 -2 25 -55 56 -117 52 -106 57 -112 81 -106 32 8 124
-42 102 -56 -8 -5 -10 -9 -5 -9 5 0 23 9 42 20 l33 21 50 -32 c46 -28 82 -33
81 -12 -1 4 -23 19 -50 32 -28 13 -50 27 -50 31 0 4 -19 -2 -41 -13 -39 -19
-43 -19 -54 -4 -7 9 -14 14 -18 11 -6 -6 -47 18 -47 28 0 4 19 18 41 31 l41
25 -98 57 c-55 32 -114 67 -131 77 -18 11 -33 18 -33 16z"/>
<path d="M2002 1948 c-18 -11 -32 -22 -32 -25 0 -2 4 -2 9 1 5 3 51 -19 102
-49 93 -54 94 -55 90 -90 -1 -20 3 -42 9 -50 10 -12 84 -55 95 -55 3 0 5 33 5
74 l0 74 -102 60 c-152 88 -139 83 -176 60z"/>
<path d="M2436 1781 c-3 -4 16 -22 42 -38 35 -22 52 -27 63 -20 13 8 5 15 -39
38 -61 33 -59 32 -66 20z"/>
<path d="M2720 1710 c0 -5 -6 -10 -12 -10 -7 0 -26 -11 -42 -24 l-30 -23 47
-27 c46 -27 47 -29 47 -76 l0 -49 31 17 c31 17 31 17 25 85 -5 71 -19 102 -42
93 -8 -3 -11 0 -7 10 3 7 0 14 -6 14 -6 0 -11 -4 -11 -10z m0 -61 c17 -13 18
-17 5 -10 -33 17 -51 31 -40 31 6 0 21 -10 35 -21z"/>
<path d="M2372 1678 c2 -24 11 -37 36 -51 l32 -19 0 34 c0 29 -5 37 -36 51
l-35 17 3 -32z"/>
<path d="M2473 1620 c-1 -11 11 -28 28 -41 32 -23 42 -20 44 11 2 23 -13 27
-21 5 -4 -8 -10 -12 -16 -9 -5 3 -4 12 3 20 13 16 12 19 -16 28 -16 5 -21 1
-22 -14z m27 -4 c0 -3 -4 -8 -10 -11 -5 -3 -10 -1 -10 4 0 6 5 11 10 11 6 0
10 -2 10 -4z"/>
<path d="M2660 1520 c0 -22 -2 -40 -4 -40 -3 0 -22 10 -43 22 -47 26 -32 9 18
-20 20 -12 39 -19 42 -15 11 10 8 93 -3 93 -5 0 -10 -18 -10 -40z"/>
<path d="M2747 1472 l-27 -19 26 -12 c32 -14 37 -11 32 23 l-3 26 -28 -18z"/>
<path d="M3353 1350 c0 -30 2 -43 4 -27 2 15 2 39 0 55 -2 15 -4 2 -4 -28z"/>
<path d="M3373 1255 c7 -14 15 -25 19 -25 3 0 9 -13 13 -28 3 -17 18 -35 36
-46 20 -12 28 -23 24 -33 -3 -9 2 -28 12 -42 16 -25 16 -25 -2 -11 -17 14 -18
13 -12 -3 4 -10 10 -43 13 -73 8 -63 28 -84 84 -84 50 0 80 24 80 63 0 18 4
46 9 64 5 17 6 47 1 66 -6 30 -4 36 19 50 23 13 88 114 79 122 -6 6 -68 -36
-68 -46 0 -14 -190 -10 -232 4 -20 7 -46 21 -56 30 -26 24 -32 21 -19 -8z"/>
</g>
</svg>
